M48
;Layer_Color=9474304
;FILE_FORMAT=2:4
INCH,TZ
;TYPE=PLATED
T1F00S00C0.0197
T2F00S00C0.0280
T3F00S00C0.0354
T4F00S00C0.0433
%
T01
X1535Y453
Y984
Y1516
X2126
Y984
Y453
X2324Y2125
X3966Y1555
X5600Y2125
X1732Y3976
X1672Y4803
X6277
X6220Y3976
X5945Y1555
Y1024
Y492
X6535
Y1024
Y1555
X9409
Y1024
Y492
X10000
Y1024
Y1555
X10309Y2125
X11950Y1555
X13898Y1555
Y1024
Y492
X14488
Y1024
Y1555
X13584Y2125
X14173Y3976
X14262Y4803
X17598
X17638Y3976
X18251Y2125
X17953Y1555
Y1024
Y492
X17362
Y1024
Y1555
X19893Y1555
X9685Y3976
X9656Y4803
X22204
X22126Y3976
X21526Y2125
X21850Y1555
Y1024
Y492
X22441
Y1024
Y1555
X25315
Y1024
Y492
X25906
Y1024
Y1555
X26214Y2125
X27856Y1555
X29803Y1555
Y1024
Y492
X30394
Y1024
Y1555
X29490Y2125
X30079Y3976
X30167Y4803
X25562
X25591Y3976
X26124Y5695
X27817Y6476
X29571Y5760
X29490Y10078
X30198Y10886
X30079Y11929
X30167Y12756
X29571Y13713
X27817Y14429
X26124Y13648
X25562Y12756
X25591Y11929
X25612Y10886
X26214Y10078
X27856Y9508
X21526Y10078
X22234Y10886
X22126Y11929
X22204Y12756
X21608Y13713
X21526Y18030
X22234Y18839
X22126Y19882
X22204Y20709
X25562
X25591Y19882
X25612Y18839
X26214Y18030
X27856Y17461
X29490Y18030
X30198Y18839
X30079Y19882
X30167Y20709
X21608Y5760
X19853Y6476
X18160Y5695
X18251Y10078
X17648Y10886
X17638Y11929
X17598Y12756
X18160Y13648
X19853Y14429
X19893Y17461
X18251Y18030
X17648Y18839
X17638Y19882
X17598Y20709
X14251
X14173Y19882
X14282Y18839
X13574Y18030
X11940Y17461
X10298Y18030
X9696Y18839
X9685Y19882
X9646Y20709
X6277
X6220Y19882
X6308Y18839
X5671Y13713
X6266Y12756
X6220Y11929
X6297Y10886
X9706
X9685Y11929
X9656Y12756
X10218Y13648
X11911Y14429
X13666Y13713
X14262Y12756
X14173Y11929
X14292Y10886
X13584Y10078
X11950Y9508
X10309Y10078
X10218Y5695
X11911Y6476
X13666Y5760
X5681Y5760
X19893Y9508
X5589Y10078
X3955Y9508
X2314Y10078
X1711Y10886
X1732Y11929
X1661Y12756
X2223Y13648
X3916Y14429
X3966Y17461
X5600Y18030
X2324
X1722Y18839
X1732Y19882
X1672Y20709
X2233Y5695
X3926Y6476
Y22382
X2233Y21601
X2324Y25933
X1722Y26741
X1732Y27835
X1672Y28611
X2233Y29504
X3926Y30285
X3976Y33366
X5610Y33936
X2335
X1732Y34744
Y35787
X1682Y36614
X3966Y25363
X5600Y25933
X6308Y26741
X6220Y27835
X6277Y28611
X5681Y29569
X10207Y29573
X9646Y28681
X9685Y27835
X9696Y26811
X10298Y26003
X11940Y25433
X13574Y26003
X14282Y26811
X14173Y27835
X14251Y28681
X13655Y29638
X11900Y30354
X11899Y33366
X13533Y33936
X14241Y34744
X14173Y35787
X14210Y36614
X17598
X17638Y35787
X17648Y34744
X18251Y33936
X19893Y33366
X19853Y30335
X18160Y29554
X17598Y28661
X17638Y27835
X17648Y26791
X18251Y25983
X19893Y25413
X19853Y22382
X18160Y21601
X13655Y21666
X11900Y22382
X10207Y21601
X5681Y21666
X6318Y34744
X6220Y35787
X6288Y36614
X9605
X9685Y35787
X9655Y34744
X10257Y33936
X21526
X22234Y34744
X22126Y35787
X22204Y36614
X25562
X25591Y35787
X25612Y34744
X26214Y33936
X27856Y33366
X29490Y33936
X30198Y34744
X30079Y35787
X30167Y36614
X29561Y29638
X30157Y28681
X30079Y27835
X30187Y26811
X29479Y26003
X27845Y25433
X26204Y26003
X25601Y26811
X25591Y27835
X25551Y28681
X26113Y29573
X27806Y30354
X21608Y29619
X22204Y28661
X22126Y27835
X22234Y26791
X21526Y25983
X21608Y21666
X26124Y21601
X27817Y22382
X29571Y21666
Y37571
X27817Y38287
X26124Y37506
X26204Y41889
X25601Y42697
X25591Y43740
X26113Y45459
X25591Y46201
Y46732
Y47264
X25000
Y46732
Y46201
X22717Y46220
Y46752
Y47283
X22126
Y46752
Y46220
X21608Y45524
X22126Y43740
X22234Y42697
X21526Y41889
X21608Y37571
X27845Y41319
X29479Y41889
X30187Y42697
X30079Y43740
X29561Y45524
X29488Y46201
Y46732
Y47264
X30079
Y46732
Y46201
X27806Y46240
X19853Y46240
X18268Y46220
Y46752
Y47283
X17677
Y46752
Y46220
X18160Y45459
X17638Y43740
X17648Y42697
X18251Y41889
X19893Y41319
X19853Y38287
X18160Y37506
X13614Y37571
X11859Y38287
X10167Y37506
X10277Y41889
X9674Y42697
X9685Y43740
X10186Y45459
X9724Y46220
Y46752
Y47283
X9134
Y46752
Y46220
X6811Y46240
Y46772
Y47303
X6220
Y46772
Y46240
X5714Y45524
X6220Y43740
X6341Y42697
X5633Y41889
X5692Y37571
X11918Y41319
X13552Y41889
X14260Y42697
X14173Y43740
X13634Y45524
X13583Y46220
Y46752
Y47283
X14173
Y46752
Y46220
X11879Y46240
X3959Y46240
X2323Y46201
Y46732
Y47264
X1732
Y46732
Y46201
X2266Y45459
X1732Y43740
X1755Y42697
X2357Y41889
X3999Y41319
X3937Y38287
X2244Y37506
T02
X30177Y7372
X30197Y15295
X14272Y15472
Y7480
X1673Y8563
Y16437
Y24409
Y32382
X17520Y31398
Y23425
X30197Y23268
X30226Y31220
Y39163
X17520Y39370
X1673Y40354
T03
X502Y502
Y1502
Y2502
Y4321
Y5321
X15394Y2512
Y1512
Y512
X16417
Y1512
Y2512
X31309
Y1512
Y512
Y4321
Y5321
X31299Y6969
Y7969
Y8968
X31309Y11427
Y12427
X31299Y14921
Y15921
Y16921
X31309Y19370
Y20370
X16417Y16921
Y15921
Y14921
X15394
Y15921
Y16921
Y8968
Y7969
Y6969
X16417
Y7969
Y8968
X512
Y7969
Y6969
X502Y11427
Y12427
X512Y14921
Y15921
Y16921
X502Y19370
Y20370
X512Y22874
Y23874
Y24874
X502Y27333
Y28333
X512Y30827
Y31827
Y32827
X502Y35285
Y36285
X15394Y32827
Y31827
Y30827
X16417
Y31827
Y32827
Y24874
Y23874
Y22874
X15394
Y23874
Y24874
X31299
Y23874
Y22874
X31319Y27333
Y28333
X31299Y30827
Y31827
Y32827
X31309Y35285
Y36285
X31299Y38780
Y39780
Y40780
X31309Y42402
Y43402
Y45207
Y46207
Y47207
X16417Y47197
Y46197
Y45197
X15394
Y46197
Y47197
Y40780
Y39780
Y38780
X16417
Y39780
Y40780
X512
Y39780
Y38780
X502Y42392
Y43392
X512Y45207
Y46207
Y47207
T04
X1220Y3976
X6732
X9173
X14685
X17126
X22638
X25079
X30591
Y11929
X25079
X22638
Y19882
X25079
X30591
X17126
X14685
X9173
X6732
Y11929
X9173
X14685
X17126
X1220
Y19882
Y27835
Y35787
X6732
X9173
X14685
X17126
Y27835
X14685
X9173
X6732
X22638
X25079
X30591
Y35787
X25079
X22638
Y43740
X25079
X30591
X17126
X14685
X9173
X6732
X1220
M30
