G04*
G04 #@! TF.GenerationSoftware,Altium Limited,Altium Designer,18.1.8 (232)*
G04*
G04 Layer_Color=32896*
%FSLAX25Y25*%
%MOIN*%
G70*
G01*
G75*
%ADD10C,0.01000*%
D10*
X297638Y437402D02*
X297612Y438403D01*
X297534Y439401D01*
X297404Y440395D01*
X297223Y441380D01*
X296991Y442354D01*
X296709Y443315D01*
X296377Y444260D01*
X295997Y445187D01*
X295569Y446093D01*
X295095Y446975D01*
X294575Y447831D01*
X294012Y448660D01*
X293407Y449458D01*
X292761Y450223D01*
X292076Y450954D01*
X291354Y451648D01*
X290597Y452304D01*
X289807Y452920D01*
X288986Y453494D01*
X288136Y454024D01*
X287260Y454510D01*
X286360Y454950D01*
X285439Y455342D01*
X284498Y455686D01*
X283541Y455980D01*
X282569Y456225D01*
X281587Y456419D01*
X280595Y456561D01*
X279598Y456652D01*
X278597Y456691D01*
X277595Y456678D01*
X276596Y456613D01*
X275601Y456497D01*
X274614Y456328D01*
X273636Y456109D01*
X272672Y455839D01*
X271722Y455520D01*
X270791Y455152D01*
X269880Y454736D01*
X268991Y454273D01*
X268128Y453764D01*
X267293Y453212D01*
X266487Y452617D01*
X265713Y451981D01*
X264974Y451306D01*
X264270Y450593D01*
X263604Y449844D01*
X262978Y449062D01*
X262394Y448249D01*
X261852Y447406D01*
X261355Y446537D01*
X260904Y445643D01*
X260500Y444726D01*
X260144Y443790D01*
X259837Y442837D01*
X259579Y441868D01*
X259373Y440888D01*
X259218Y439899D01*
X259114Y438903D01*
X259062Y437902D01*
Y436901D01*
X259114Y435900D01*
X259217Y434904D01*
X259373Y433915D01*
X259579Y432935D01*
X259837Y431967D01*
X260144Y431013D01*
X260500Y430077D01*
X260904Y429161D01*
X261355Y428266D01*
X261852Y427397D01*
X262394Y426554D01*
X262978Y425741D01*
X263604Y424959D01*
X264270Y424210D01*
X264974Y423497D01*
X265713Y422822D01*
X266487Y422186D01*
X267293Y421591D01*
X268128Y421039D01*
X268991Y420530D01*
X269880Y420068D01*
X270791Y419651D01*
X271722Y419283D01*
X272672Y418964D01*
X273636Y418694D01*
X274614Y418475D01*
X275601Y418307D01*
X276596Y418190D01*
X277595Y418125D01*
X278597Y418112D01*
X279598Y418151D01*
X280595Y418242D01*
X281587Y418384D01*
X282569Y418578D01*
X283541Y418823D01*
X284498Y419117D01*
X285439Y419461D01*
X286360Y419854D01*
X287260Y420293D01*
X288136Y420779D01*
X288986Y421309D01*
X289807Y421883D01*
X290597Y422499D01*
X291354Y423155D01*
X292076Y423849D01*
X292761Y424580D01*
X293407Y425346D01*
X294012Y426144D01*
X294575Y426972D01*
X295095Y427828D01*
X295569Y428711D01*
X295997Y429616D01*
X296377Y430543D01*
X296709Y431488D01*
X296991Y432449D01*
X297223Y433423D01*
X297404Y434409D01*
X297534Y435402D01*
X297612Y436400D01*
X297638Y437402D01*
Y357874D02*
X297612Y358875D01*
X297534Y359874D01*
X297404Y360867D01*
X297223Y361852D01*
X296991Y362827D01*
X296709Y363788D01*
X296377Y364733D01*
X295997Y365659D01*
X295569Y366565D01*
X295095Y367447D01*
X294575Y368304D01*
X294012Y369132D01*
X293407Y369930D01*
X292761Y370695D01*
X292076Y371426D01*
X291354Y372121D01*
X290597Y372777D01*
X289807Y373392D01*
X288986Y373966D01*
X288136Y374497D01*
X287260Y374982D01*
X286360Y375422D01*
X285439Y375814D01*
X284498Y376158D01*
X283541Y376453D01*
X282569Y376697D01*
X281587Y376891D01*
X280595Y377034D01*
X279598Y377125D01*
X278597Y377164D01*
X277595Y377151D01*
X276596Y377086D01*
X275601Y376969D01*
X274614Y376801D01*
X273636Y376582D01*
X272672Y376312D01*
X271722Y375992D01*
X270791Y375624D01*
X269880Y375208D01*
X268991Y374745D01*
X268128Y374237D01*
X267293Y373685D01*
X266487Y373090D01*
X265713Y372453D01*
X264974Y371778D01*
X264270Y371065D01*
X263604Y370317D01*
X262978Y369535D01*
X262394Y368722D01*
X261852Y367879D01*
X261355Y367009D01*
X260904Y366115D01*
X260500Y365199D01*
X260144Y364262D01*
X259837Y363309D01*
X259579Y362341D01*
X259373Y361361D01*
X259218Y360371D01*
X259114Y359375D01*
X259062Y358375D01*
Y357373D01*
X259114Y356373D01*
X259217Y355377D01*
X259373Y354387D01*
X259579Y353407D01*
X259837Y352439D01*
X260144Y351486D01*
X260500Y350549D01*
X260904Y349633D01*
X261355Y348739D01*
X261852Y347869D01*
X262394Y347026D01*
X262978Y346213D01*
X263604Y345431D01*
X264270Y344683D01*
X264974Y343970D01*
X265713Y343295D01*
X266487Y342659D01*
X267293Y342063D01*
X268128Y341511D01*
X268991Y341003D01*
X269880Y340540D01*
X270791Y340124D01*
X271722Y339756D01*
X272672Y339436D01*
X273636Y339166D01*
X274614Y338947D01*
X275601Y338779D01*
X276596Y338662D01*
X277595Y338597D01*
X278597Y338584D01*
X279598Y338623D01*
X280595Y338714D01*
X281587Y338857D01*
X282569Y339051D01*
X283541Y339295D01*
X284498Y339590D01*
X285439Y339934D01*
X286360Y340326D01*
X287260Y340766D01*
X288136Y341251D01*
X288986Y341782D01*
X289807Y342356D01*
X290597Y342972D01*
X291354Y343628D01*
X292076Y344322D01*
X292761Y345053D01*
X293407Y345818D01*
X294012Y346616D01*
X294575Y347444D01*
X295095Y348301D01*
X295569Y349183D01*
X295997Y350089D01*
X296377Y351015D01*
X296709Y351960D01*
X296991Y352922D01*
X297223Y353896D01*
X297404Y354881D01*
X297534Y355874D01*
X297612Y356873D01*
X297638Y357874D01*
Y278346D02*
X297612Y279348D01*
X297534Y280346D01*
X297404Y281340D01*
X297223Y282325D01*
X296991Y283299D01*
X296709Y284260D01*
X296377Y285205D01*
X295997Y286132D01*
X295569Y287037D01*
X295095Y287920D01*
X294575Y288776D01*
X294012Y289604D01*
X293407Y290402D01*
X292761Y291168D01*
X292076Y291899D01*
X291354Y292593D01*
X290597Y293249D01*
X289807Y293865D01*
X288986Y294439D01*
X288136Y294969D01*
X287260Y295455D01*
X286360Y295895D01*
X285439Y296287D01*
X284498Y296631D01*
X283541Y296925D01*
X282569Y297170D01*
X281587Y297364D01*
X280595Y297506D01*
X279598Y297597D01*
X278597Y297636D01*
X277595Y297623D01*
X276596Y297558D01*
X275601Y297441D01*
X274614Y297273D01*
X273636Y297054D01*
X272672Y296784D01*
X271722Y296465D01*
X270791Y296097D01*
X269880Y295680D01*
X268991Y295218D01*
X268128Y294709D01*
X267293Y294157D01*
X266487Y293562D01*
X265713Y292926D01*
X264974Y292250D01*
X264270Y291538D01*
X263604Y290789D01*
X262978Y290007D01*
X262394Y289194D01*
X261852Y288351D01*
X261355Y287482D01*
X260904Y286588D01*
X260500Y285671D01*
X260144Y284735D01*
X259837Y283782D01*
X259579Y282813D01*
X259373Y281833D01*
X259218Y280844D01*
X259114Y279848D01*
X259062Y278847D01*
Y277846D01*
X259114Y276845D01*
X259217Y275849D01*
X259373Y274860D01*
X259579Y273880D01*
X259837Y272912D01*
X260144Y271958D01*
X260500Y271022D01*
X260904Y270106D01*
X261355Y269211D01*
X261852Y268342D01*
X262394Y267499D01*
X262978Y266686D01*
X263604Y265904D01*
X264270Y265155D01*
X264974Y264442D01*
X265713Y263767D01*
X266487Y263131D01*
X267293Y262536D01*
X268128Y261984D01*
X268991Y261475D01*
X269880Y261012D01*
X270791Y260596D01*
X271722Y260228D01*
X272672Y259909D01*
X273636Y259639D01*
X274614Y259420D01*
X275601Y259251D01*
X276596Y259135D01*
X277595Y259070D01*
X278597Y259057D01*
X279598Y259096D01*
X280595Y259187D01*
X281587Y259329D01*
X282569Y259523D01*
X283541Y259768D01*
X284498Y260062D01*
X285439Y260406D01*
X286360Y260799D01*
X287260Y261238D01*
X288136Y261724D01*
X288986Y262254D01*
X289807Y262828D01*
X290597Y263444D01*
X291354Y264100D01*
X292076Y264794D01*
X292761Y265525D01*
X293407Y266291D01*
X294012Y267089D01*
X294575Y267917D01*
X295095Y268773D01*
X295569Y269655D01*
X295997Y270561D01*
X296377Y271488D01*
X296709Y272433D01*
X296991Y273394D01*
X297223Y274368D01*
X297404Y275354D01*
X297534Y276347D01*
X297612Y277345D01*
X297638Y278346D01*
Y198819D02*
X297612Y199820D01*
X297534Y200819D01*
X297404Y201812D01*
X297223Y202797D01*
X296991Y203771D01*
X296709Y204733D01*
X296377Y205678D01*
X295997Y206604D01*
X295569Y207510D01*
X295095Y208392D01*
X294575Y209249D01*
X294012Y210077D01*
X293407Y210875D01*
X292761Y211640D01*
X292076Y212371D01*
X291354Y213066D01*
X290597Y213721D01*
X289807Y214337D01*
X288986Y214911D01*
X288136Y215442D01*
X287260Y215927D01*
X286360Y216367D01*
X285439Y216759D01*
X284498Y217103D01*
X283541Y217398D01*
X282569Y217642D01*
X281587Y217836D01*
X280595Y217979D01*
X279598Y218070D01*
X278597Y218109D01*
X277595Y218096D01*
X276596Y218031D01*
X275601Y217914D01*
X274614Y217746D01*
X273636Y217526D01*
X272672Y217257D01*
X271722Y216937D01*
X270791Y216569D01*
X269880Y216153D01*
X268991Y215690D01*
X268128Y215182D01*
X267293Y214629D01*
X266487Y214034D01*
X265713Y213398D01*
X264974Y212723D01*
X264270Y212010D01*
X263604Y211262D01*
X262978Y210480D01*
X262394Y209666D01*
X261852Y208824D01*
X261355Y207954D01*
X260904Y207060D01*
X260500Y206143D01*
X260144Y205207D01*
X259837Y204254D01*
X259579Y203286D01*
X259373Y202306D01*
X259218Y201316D01*
X259114Y200320D01*
X259062Y199320D01*
Y198318D01*
X259114Y197318D01*
X259217Y196322D01*
X259373Y195332D01*
X259579Y194352D01*
X259837Y193384D01*
X260144Y192430D01*
X260500Y191494D01*
X260904Y190578D01*
X261355Y189684D01*
X261852Y188814D01*
X262394Y187971D01*
X262978Y187158D01*
X263604Y186376D01*
X264270Y185628D01*
X264974Y184915D01*
X265713Y184239D01*
X266487Y183603D01*
X267293Y183008D01*
X268128Y182456D01*
X268991Y181948D01*
X269880Y181485D01*
X270791Y181069D01*
X271722Y180701D01*
X272672Y180381D01*
X273636Y180111D01*
X274614Y179892D01*
X275601Y179724D01*
X276596Y179607D01*
X277595Y179542D01*
X278597Y179529D01*
X279598Y179568D01*
X280595Y179659D01*
X281587Y179802D01*
X282569Y179995D01*
X283541Y180240D01*
X284498Y180535D01*
X285439Y180879D01*
X286360Y181271D01*
X287260Y181711D01*
X288136Y182196D01*
X288986Y182727D01*
X289807Y183301D01*
X290597Y183916D01*
X291354Y184572D01*
X292076Y185267D01*
X292761Y185998D01*
X293407Y186763D01*
X294012Y187561D01*
X294575Y188389D01*
X295095Y189246D01*
X295569Y190128D01*
X295997Y191033D01*
X296377Y191960D01*
X296709Y192905D01*
X296991Y193866D01*
X297223Y194841D01*
X297404Y195826D01*
X297534Y196819D01*
X297612Y197818D01*
X297638Y198819D01*
Y119291D02*
X297612Y120293D01*
X297534Y121291D01*
X297404Y122284D01*
X297223Y123270D01*
X296991Y124244D01*
X296709Y125205D01*
X296377Y126150D01*
X295997Y127077D01*
X295569Y127982D01*
X295095Y128865D01*
X294575Y129721D01*
X294012Y130549D01*
X293407Y131347D01*
X292761Y132113D01*
X292076Y132844D01*
X291354Y133538D01*
X290597Y134194D01*
X289807Y134810D01*
X288986Y135383D01*
X288136Y135914D01*
X287260Y136400D01*
X286360Y136839D01*
X285439Y137232D01*
X284498Y137576D01*
X283541Y137870D01*
X282569Y138115D01*
X281587Y138309D01*
X280595Y138451D01*
X279598Y138542D01*
X278597Y138581D01*
X277595Y138568D01*
X276596Y138503D01*
X275601Y138386D01*
X274614Y138218D01*
X273636Y137999D01*
X272672Y137729D01*
X271722Y137410D01*
X270791Y137041D01*
X269880Y136625D01*
X268991Y136163D01*
X268128Y135654D01*
X267293Y135102D01*
X266487Y134507D01*
X265713Y133871D01*
X264974Y133195D01*
X264270Y132483D01*
X263604Y131734D01*
X262978Y130952D01*
X262394Y130139D01*
X261852Y129296D01*
X261355Y128427D01*
X260904Y127532D01*
X260500Y126616D01*
X260144Y125680D01*
X259837Y124726D01*
X259579Y123758D01*
X259373Y122778D01*
X259218Y121789D01*
X259114Y120792D01*
X259062Y119792D01*
Y118791D01*
X259114Y117790D01*
X259217Y116794D01*
X259373Y115805D01*
X259579Y114824D01*
X259837Y113856D01*
X260144Y112903D01*
X260500Y111967D01*
X260904Y111050D01*
X261355Y110156D01*
X261852Y109286D01*
X262394Y108444D01*
X262978Y107631D01*
X263604Y106849D01*
X264270Y106100D01*
X264974Y105387D01*
X265713Y104712D01*
X266487Y104076D01*
X267293Y103481D01*
X268128Y102928D01*
X268991Y102420D01*
X269880Y101957D01*
X270791Y101541D01*
X271722Y101173D01*
X272672Y100854D01*
X273636Y100584D01*
X274614Y100365D01*
X275601Y100196D01*
X276596Y100080D01*
X277595Y100015D01*
X278597Y100002D01*
X279598Y100041D01*
X280595Y100131D01*
X281587Y100274D01*
X282569Y100468D01*
X283541Y100712D01*
X284498Y101007D01*
X285439Y101351D01*
X286360Y101743D01*
X287260Y102183D01*
X288136Y102669D01*
X288986Y103199D01*
X289807Y103773D01*
X290597Y104389D01*
X291354Y105045D01*
X292076Y105739D01*
X292761Y106470D01*
X293407Y107236D01*
X294012Y108033D01*
X294575Y108862D01*
X295095Y109718D01*
X295569Y110600D01*
X295997Y111506D01*
X296377Y112433D01*
X296709Y113378D01*
X296991Y114339D01*
X297223Y115313D01*
X297404Y116298D01*
X297534Y117292D01*
X297612Y118290D01*
X297638Y119291D01*
Y39764D02*
X297612Y40765D01*
X297534Y41764D01*
X297404Y42757D01*
X297223Y43742D01*
X296991Y44716D01*
X296709Y45678D01*
X296377Y46623D01*
X295997Y47549D01*
X295569Y48455D01*
X295095Y49337D01*
X294575Y50194D01*
X294012Y51022D01*
X293407Y51820D01*
X292761Y52585D01*
X292076Y53316D01*
X291354Y54010D01*
X290597Y54666D01*
X289807Y55282D01*
X288986Y55856D01*
X288136Y56387D01*
X287260Y56872D01*
X286360Y57312D01*
X285439Y57704D01*
X284498Y58048D01*
X283541Y58343D01*
X282569Y58587D01*
X281587Y58781D01*
X280595Y58924D01*
X279598Y59014D01*
X278597Y59053D01*
X277595Y59040D01*
X276596Y58975D01*
X275601Y58859D01*
X274614Y58691D01*
X273636Y58471D01*
X272672Y58202D01*
X271722Y57882D01*
X270791Y57514D01*
X269880Y57098D01*
X268991Y56635D01*
X268128Y56127D01*
X267293Y55574D01*
X266487Y54979D01*
X265713Y54343D01*
X264974Y53668D01*
X264270Y52955D01*
X263604Y52207D01*
X262978Y51425D01*
X262394Y50611D01*
X261852Y49769D01*
X261355Y48899D01*
X260904Y48005D01*
X260500Y47088D01*
X260144Y46152D01*
X259837Y45199D01*
X259579Y44231D01*
X259373Y43251D01*
X259218Y42261D01*
X259114Y41265D01*
X259062Y40265D01*
Y39263D01*
X259114Y38263D01*
X259217Y37266D01*
X259373Y36277D01*
X259579Y35297D01*
X259837Y34329D01*
X260144Y33375D01*
X260500Y32439D01*
X260904Y31523D01*
X261355Y30629D01*
X261852Y29759D01*
X262394Y28916D01*
X262978Y28103D01*
X263604Y27321D01*
X264270Y26573D01*
X264974Y25860D01*
X265713Y25184D01*
X266487Y24548D01*
X267293Y23953D01*
X268128Y23401D01*
X268991Y22893D01*
X269880Y22430D01*
X270791Y22014D01*
X271722Y21645D01*
X272672Y21326D01*
X273636Y21056D01*
X274614Y20837D01*
X275601Y20669D01*
X276596Y20552D01*
X277595Y20487D01*
X278597Y20474D01*
X279598Y20513D01*
X280595Y20604D01*
X281587Y20746D01*
X282569Y20940D01*
X283541Y21185D01*
X284498Y21479D01*
X285439Y21824D01*
X286360Y22216D01*
X287260Y22655D01*
X288136Y23141D01*
X288986Y23672D01*
X289807Y24246D01*
X290597Y24861D01*
X291354Y25517D01*
X292076Y26212D01*
X292761Y26943D01*
X293407Y27708D01*
X294012Y28506D01*
X294575Y29334D01*
X295095Y30191D01*
X295569Y31073D01*
X295997Y31978D01*
X296377Y32905D01*
X296709Y33850D01*
X296991Y34811D01*
X297223Y35786D01*
X297404Y36771D01*
X297534Y37764D01*
X297612Y38763D01*
X297638Y39764D01*
X218110Y119291D02*
X218084Y120293D01*
X218006Y121291D01*
X217877Y122284D01*
X217696Y123270D01*
X217464Y124244D01*
X217181Y125205D01*
X216850Y126150D01*
X216470Y127077D01*
X216042Y127982D01*
X215567Y128865D01*
X215048Y129721D01*
X214485Y130549D01*
X213879Y131347D01*
X213233Y132113D01*
X212548Y132844D01*
X211826Y133538D01*
X211069Y134194D01*
X210279Y134810D01*
X209458Y135383D01*
X208609Y135914D01*
X207733Y136400D01*
X206833Y136839D01*
X205911Y137232D01*
X204971Y137576D01*
X204013Y137870D01*
X203042Y138115D01*
X202059Y138309D01*
X201068Y138451D01*
X200070Y138542D01*
X199069Y138581D01*
X198068Y138568D01*
X197068Y138503D01*
X196073Y138386D01*
X195086Y138218D01*
X194109Y137999D01*
X193144Y137729D01*
X192195Y137410D01*
X191263Y137041D01*
X190352Y136625D01*
X189464Y136163D01*
X188601Y135654D01*
X187765Y135102D01*
X186960Y134507D01*
X186186Y133871D01*
X185446Y133195D01*
X184742Y132483D01*
X184077Y131734D01*
X183451Y130952D01*
X182866Y130139D01*
X182325Y129296D01*
X181828Y128427D01*
X181376Y127532D01*
X180972Y126616D01*
X180616Y125680D01*
X180309Y124726D01*
X180052Y123758D01*
X179845Y122778D01*
X179690Y121789D01*
X179586Y120792D01*
X179534Y119792D01*
Y118791D01*
X179586Y117790D01*
X179690Y116794D01*
X179845Y115805D01*
X180052Y114824D01*
X180309Y113856D01*
X180616Y112903D01*
X180972Y111967D01*
X181376Y111050D01*
X181828Y110156D01*
X182325Y109286D01*
X182866Y108444D01*
X183451Y107631D01*
X184077Y106849D01*
X184742Y106100D01*
X185446Y105387D01*
X186186Y104712D01*
X186960Y104076D01*
X187765Y103481D01*
X188601Y102928D01*
X189464Y102420D01*
X190352Y101957D01*
X191263Y101541D01*
X192195Y101173D01*
X193144Y100854D01*
X194109Y100584D01*
X195086Y100365D01*
X196073Y100196D01*
X197068Y100080D01*
X198068Y100015D01*
X199069Y100002D01*
X200070Y100041D01*
X201068Y100131D01*
X202059Y100274D01*
X203042Y100468D01*
X204013Y100712D01*
X204971Y101007D01*
X205911Y101351D01*
X206833Y101743D01*
X207733Y102183D01*
X208609Y102669D01*
X209458Y103199D01*
X210279Y103773D01*
X211069Y104389D01*
X211826Y105045D01*
X212548Y105739D01*
X213233Y106470D01*
X213879Y107236D01*
X214485Y108033D01*
X215048Y108862D01*
X215567Y109718D01*
X216042Y110600D01*
X216470Y111506D01*
X216850Y112433D01*
X217181Y113378D01*
X217464Y114339D01*
X217696Y115313D01*
X217877Y116298D01*
X218006Y117292D01*
X218084Y118290D01*
X218110Y119291D01*
Y39764D02*
X218084Y40765D01*
X218006Y41764D01*
X217877Y42757D01*
X217696Y43742D01*
X217464Y44716D01*
X217181Y45678D01*
X216850Y46623D01*
X216470Y47549D01*
X216042Y48455D01*
X215567Y49337D01*
X215048Y50194D01*
X214485Y51022D01*
X213879Y51820D01*
X213233Y52585D01*
X212548Y53316D01*
X211826Y54010D01*
X211069Y54666D01*
X210279Y55282D01*
X209458Y55856D01*
X208609Y56387D01*
X207733Y56872D01*
X206833Y57312D01*
X205911Y57704D01*
X204971Y58048D01*
X204013Y58343D01*
X203042Y58587D01*
X202059Y58781D01*
X201068Y58924D01*
X200070Y59014D01*
X199069Y59053D01*
X198068Y59040D01*
X197068Y58975D01*
X196073Y58859D01*
X195086Y58691D01*
X194109Y58471D01*
X193144Y58202D01*
X192195Y57882D01*
X191263Y57514D01*
X190352Y57098D01*
X189464Y56635D01*
X188601Y56127D01*
X187765Y55574D01*
X186960Y54979D01*
X186186Y54343D01*
X185446Y53668D01*
X184742Y52955D01*
X184077Y52207D01*
X183451Y51425D01*
X182866Y50611D01*
X182325Y49769D01*
X181828Y48899D01*
X181376Y48005D01*
X180972Y47088D01*
X180616Y46152D01*
X180309Y45199D01*
X180052Y44231D01*
X179845Y43251D01*
X179690Y42261D01*
X179586Y41265D01*
X179534Y40265D01*
Y39263D01*
X179586Y38263D01*
X179690Y37266D01*
X179845Y36277D01*
X180052Y35297D01*
X180309Y34329D01*
X180616Y33375D01*
X180972Y32439D01*
X181376Y31523D01*
X181828Y30629D01*
X182325Y29759D01*
X182866Y28916D01*
X183451Y28103D01*
X184077Y27321D01*
X184742Y26573D01*
X185446Y25860D01*
X186186Y25184D01*
X186960Y24548D01*
X187765Y23953D01*
X188601Y23401D01*
X189464Y22893D01*
X190352Y22430D01*
X191263Y22014D01*
X192195Y21645D01*
X193144Y21326D01*
X194109Y21056D01*
X195086Y20837D01*
X196073Y20669D01*
X197068Y20552D01*
X198068Y20487D01*
X199069Y20474D01*
X200070Y20513D01*
X201068Y20604D01*
X202059Y20746D01*
X203042Y20940D01*
X204013Y21185D01*
X204971Y21479D01*
X205911Y21824D01*
X206833Y22216D01*
X207733Y22655D01*
X208609Y23141D01*
X209458Y23672D01*
X210279Y24246D01*
X211069Y24861D01*
X211826Y25517D01*
X212548Y26212D01*
X213233Y26943D01*
X213879Y27708D01*
X214485Y28506D01*
X215048Y29334D01*
X215567Y30191D01*
X216042Y31073D01*
X216470Y31978D01*
X216850Y32905D01*
X217181Y33850D01*
X217464Y34811D01*
X217696Y35786D01*
X217877Y36771D01*
X218006Y37764D01*
X218084Y38763D01*
X218110Y39764D01*
Y437402D02*
X218084Y438403D01*
X218006Y439401D01*
X217877Y440395D01*
X217696Y441380D01*
X217464Y442354D01*
X217181Y443315D01*
X216850Y444260D01*
X216470Y445187D01*
X216042Y446093D01*
X215567Y446975D01*
X215048Y447831D01*
X214485Y448660D01*
X213879Y449458D01*
X213233Y450223D01*
X212548Y450954D01*
X211826Y451648D01*
X211069Y452304D01*
X210279Y452920D01*
X209458Y453494D01*
X208609Y454024D01*
X207733Y454510D01*
X206833Y454950D01*
X205911Y455342D01*
X204971Y455686D01*
X204013Y455980D01*
X203042Y456225D01*
X202059Y456419D01*
X201068Y456561D01*
X200070Y456652D01*
X199069Y456691D01*
X198068Y456678D01*
X197068Y456613D01*
X196073Y456497D01*
X195086Y456328D01*
X194109Y456109D01*
X193144Y455839D01*
X192195Y455520D01*
X191263Y455152D01*
X190352Y454736D01*
X189464Y454273D01*
X188601Y453764D01*
X187765Y453212D01*
X186960Y452617D01*
X186186Y451981D01*
X185446Y451306D01*
X184742Y450593D01*
X184077Y449844D01*
X183451Y449062D01*
X182866Y448249D01*
X182325Y447406D01*
X181828Y446537D01*
X181376Y445643D01*
X180972Y444726D01*
X180616Y443790D01*
X180309Y442837D01*
X180052Y441868D01*
X179845Y440888D01*
X179690Y439899D01*
X179586Y438903D01*
X179534Y437902D01*
Y436901D01*
X179586Y435900D01*
X179690Y434904D01*
X179845Y433915D01*
X180052Y432935D01*
X180309Y431967D01*
X180616Y431013D01*
X180972Y430077D01*
X181376Y429161D01*
X181828Y428266D01*
X182325Y427397D01*
X182866Y426554D01*
X183451Y425741D01*
X184077Y424959D01*
X184742Y424210D01*
X185446Y423497D01*
X186186Y422822D01*
X186960Y422186D01*
X187765Y421591D01*
X188601Y421039D01*
X189464Y420530D01*
X190352Y420068D01*
X191263Y419651D01*
X192195Y419283D01*
X193144Y418964D01*
X194109Y418694D01*
X195086Y418475D01*
X196073Y418307D01*
X197068Y418190D01*
X198068Y418125D01*
X199069Y418112D01*
X200070Y418151D01*
X201068Y418242D01*
X202059Y418384D01*
X203042Y418578D01*
X204013Y418823D01*
X204971Y419117D01*
X205911Y419461D01*
X206833Y419854D01*
X207733Y420293D01*
X208609Y420779D01*
X209458Y421309D01*
X210279Y421883D01*
X211069Y422499D01*
X211826Y423155D01*
X212548Y423849D01*
X213233Y424580D01*
X213879Y425346D01*
X214485Y426144D01*
X215048Y426972D01*
X215567Y427828D01*
X216042Y428711D01*
X216470Y429616D01*
X216850Y430543D01*
X217181Y431488D01*
X217464Y432449D01*
X217696Y433423D01*
X217877Y434409D01*
X218006Y435402D01*
X218084Y436400D01*
X218110Y437402D01*
Y357874D02*
X218084Y358875D01*
X218006Y359874D01*
X217877Y360867D01*
X217696Y361852D01*
X217464Y362827D01*
X217181Y363788D01*
X216850Y364733D01*
X216470Y365659D01*
X216042Y366565D01*
X215567Y367447D01*
X215048Y368304D01*
X214485Y369132D01*
X213879Y369930D01*
X213233Y370695D01*
X212548Y371426D01*
X211826Y372121D01*
X211069Y372777D01*
X210279Y373392D01*
X209458Y373966D01*
X208609Y374497D01*
X207733Y374982D01*
X206833Y375422D01*
X205911Y375814D01*
X204971Y376158D01*
X204013Y376453D01*
X203042Y376697D01*
X202059Y376891D01*
X201068Y377034D01*
X200070Y377125D01*
X199069Y377164D01*
X198068Y377151D01*
X197068Y377086D01*
X196073Y376969D01*
X195086Y376801D01*
X194109Y376582D01*
X193144Y376312D01*
X192195Y375992D01*
X191263Y375624D01*
X190352Y375208D01*
X189464Y374745D01*
X188601Y374237D01*
X187765Y373685D01*
X186960Y373090D01*
X186186Y372453D01*
X185446Y371778D01*
X184742Y371065D01*
X184077Y370317D01*
X183451Y369535D01*
X182866Y368722D01*
X182325Y367879D01*
X181828Y367009D01*
X181376Y366115D01*
X180972Y365199D01*
X180616Y364262D01*
X180309Y363309D01*
X180052Y362341D01*
X179845Y361361D01*
X179690Y360371D01*
X179586Y359375D01*
X179534Y358375D01*
Y357373D01*
X179586Y356373D01*
X179690Y355377D01*
X179845Y354387D01*
X180052Y353407D01*
X180309Y352439D01*
X180616Y351486D01*
X180972Y350549D01*
X181376Y349633D01*
X181828Y348739D01*
X182325Y347869D01*
X182866Y347026D01*
X183451Y346213D01*
X184077Y345431D01*
X184742Y344683D01*
X185446Y343970D01*
X186186Y343295D01*
X186960Y342659D01*
X187765Y342063D01*
X188601Y341511D01*
X189464Y341003D01*
X190352Y340540D01*
X191263Y340124D01*
X192195Y339756D01*
X193144Y339436D01*
X194109Y339166D01*
X195086Y338947D01*
X196073Y338779D01*
X197068Y338662D01*
X198068Y338597D01*
X199069Y338584D01*
X200070Y338623D01*
X201068Y338714D01*
X202059Y338857D01*
X203042Y339051D01*
X204013Y339295D01*
X204971Y339590D01*
X205911Y339934D01*
X206833Y340326D01*
X207733Y340766D01*
X208609Y341251D01*
X209458Y341782D01*
X210279Y342356D01*
X211069Y342972D01*
X211826Y343628D01*
X212548Y344322D01*
X213233Y345053D01*
X213879Y345818D01*
X214485Y346616D01*
X215048Y347444D01*
X215567Y348301D01*
X216042Y349183D01*
X216470Y350089D01*
X216850Y351015D01*
X217181Y351960D01*
X217464Y352922D01*
X217696Y353896D01*
X217877Y354881D01*
X218006Y355874D01*
X218084Y356873D01*
X218110Y357874D01*
Y278346D02*
X218084Y279348D01*
X218006Y280346D01*
X217877Y281340D01*
X217696Y282325D01*
X217464Y283299D01*
X217181Y284260D01*
X216850Y285205D01*
X216470Y286132D01*
X216042Y287037D01*
X215567Y287920D01*
X215048Y288776D01*
X214485Y289604D01*
X213879Y290402D01*
X213233Y291168D01*
X212548Y291899D01*
X211826Y292593D01*
X211069Y293249D01*
X210279Y293865D01*
X209458Y294439D01*
X208609Y294969D01*
X207733Y295455D01*
X206833Y295895D01*
X205911Y296287D01*
X204971Y296631D01*
X204013Y296925D01*
X203042Y297170D01*
X202059Y297364D01*
X201068Y297506D01*
X200070Y297597D01*
X199069Y297636D01*
X198068Y297623D01*
X197068Y297558D01*
X196073Y297441D01*
X195086Y297273D01*
X194109Y297054D01*
X193144Y296784D01*
X192195Y296465D01*
X191263Y296097D01*
X190352Y295680D01*
X189464Y295218D01*
X188601Y294709D01*
X187765Y294157D01*
X186960Y293562D01*
X186186Y292926D01*
X185446Y292250D01*
X184742Y291538D01*
X184077Y290789D01*
X183451Y290007D01*
X182866Y289194D01*
X182325Y288351D01*
X181828Y287482D01*
X181376Y286588D01*
X180972Y285671D01*
X180616Y284735D01*
X180309Y283782D01*
X180052Y282813D01*
X179845Y281833D01*
X179690Y280844D01*
X179586Y279848D01*
X179534Y278847D01*
Y277846D01*
X179586Y276845D01*
X179690Y275849D01*
X179845Y274860D01*
X180052Y273880D01*
X180309Y272912D01*
X180616Y271958D01*
X180972Y271022D01*
X181376Y270106D01*
X181828Y269211D01*
X182325Y268342D01*
X182866Y267499D01*
X183451Y266686D01*
X184077Y265904D01*
X184742Y265155D01*
X185446Y264442D01*
X186186Y263767D01*
X186960Y263131D01*
X187765Y262536D01*
X188601Y261984D01*
X189464Y261475D01*
X190352Y261012D01*
X191263Y260596D01*
X192195Y260228D01*
X193144Y259909D01*
X194109Y259639D01*
X195086Y259420D01*
X196073Y259251D01*
X197068Y259135D01*
X198068Y259070D01*
X199069Y259057D01*
X200070Y259096D01*
X201068Y259187D01*
X202059Y259329D01*
X203042Y259523D01*
X204013Y259768D01*
X204971Y260062D01*
X205911Y260406D01*
X206833Y260799D01*
X207733Y261238D01*
X208609Y261724D01*
X209458Y262254D01*
X210279Y262828D01*
X211069Y263444D01*
X211826Y264100D01*
X212548Y264794D01*
X213233Y265525D01*
X213879Y266291D01*
X214485Y267089D01*
X215048Y267917D01*
X215567Y268773D01*
X216042Y269655D01*
X216470Y270561D01*
X216850Y271488D01*
X217181Y272433D01*
X217464Y273394D01*
X217696Y274368D01*
X217877Y275354D01*
X218006Y276347D01*
X218084Y277345D01*
X218110Y278346D01*
Y198819D02*
X218084Y199820D01*
X218006Y200819D01*
X217877Y201812D01*
X217696Y202797D01*
X217464Y203771D01*
X217181Y204733D01*
X216850Y205678D01*
X216470Y206604D01*
X216042Y207510D01*
X215567Y208392D01*
X215048Y209249D01*
X214485Y210077D01*
X213879Y210875D01*
X213233Y211640D01*
X212548Y212371D01*
X211826Y213066D01*
X211069Y213721D01*
X210279Y214337D01*
X209458Y214911D01*
X208609Y215442D01*
X207733Y215927D01*
X206833Y216367D01*
X205911Y216759D01*
X204971Y217103D01*
X204013Y217398D01*
X203042Y217642D01*
X202059Y217836D01*
X201068Y217979D01*
X200070Y218070D01*
X199069Y218109D01*
X198068Y218096D01*
X197068Y218031D01*
X196073Y217914D01*
X195086Y217746D01*
X194109Y217526D01*
X193144Y217257D01*
X192195Y216937D01*
X191263Y216569D01*
X190352Y216153D01*
X189464Y215690D01*
X188601Y215182D01*
X187765Y214629D01*
X186960Y214034D01*
X186186Y213398D01*
X185446Y212723D01*
X184742Y212010D01*
X184077Y211262D01*
X183451Y210480D01*
X182866Y209666D01*
X182325Y208824D01*
X181828Y207954D01*
X181376Y207060D01*
X180972Y206143D01*
X180616Y205207D01*
X180309Y204254D01*
X180052Y203286D01*
X179845Y202306D01*
X179690Y201316D01*
X179586Y200320D01*
X179534Y199320D01*
Y198318D01*
X179586Y197318D01*
X179690Y196322D01*
X179845Y195332D01*
X180052Y194352D01*
X180309Y193384D01*
X180616Y192430D01*
X180972Y191494D01*
X181376Y190578D01*
X181828Y189684D01*
X182325Y188814D01*
X182866Y187971D01*
X183451Y187158D01*
X184077Y186376D01*
X184742Y185628D01*
X185446Y184915D01*
X186186Y184239D01*
X186960Y183603D01*
X187765Y183008D01*
X188601Y182456D01*
X189464Y181948D01*
X190352Y181485D01*
X191263Y181069D01*
X192195Y180701D01*
X193144Y180381D01*
X194109Y180111D01*
X195086Y179892D01*
X196073Y179724D01*
X197068Y179607D01*
X198068Y179542D01*
X199069Y179529D01*
X200070Y179568D01*
X201068Y179659D01*
X202059Y179802D01*
X203042Y179995D01*
X204013Y180240D01*
X204971Y180535D01*
X205911Y180879D01*
X206833Y181271D01*
X207733Y181711D01*
X208609Y182196D01*
X209458Y182727D01*
X210279Y183301D01*
X211069Y183916D01*
X211826Y184572D01*
X212548Y185267D01*
X213233Y185998D01*
X213879Y186763D01*
X214485Y187561D01*
X215048Y188389D01*
X215567Y189246D01*
X216042Y190128D01*
X216470Y191033D01*
X216850Y191960D01*
X217181Y192905D01*
X217464Y193866D01*
X217696Y194841D01*
X217877Y195826D01*
X218006Y196819D01*
X218084Y197818D01*
X218110Y198819D01*
X138583Y278346D02*
X138557Y279348D01*
X138479Y280346D01*
X138349Y281340D01*
X138168Y282325D01*
X137936Y283299D01*
X137654Y284260D01*
X137322Y285205D01*
X136942Y286132D01*
X136514Y287037D01*
X136040Y287920D01*
X135520Y288776D01*
X134957Y289604D01*
X134352Y290402D01*
X133705Y291168D01*
X133021Y291899D01*
X132299Y292593D01*
X131542Y293249D01*
X130752Y293865D01*
X129931Y294439D01*
X129081Y294969D01*
X128205Y295455D01*
X127305Y295895D01*
X126384Y296287D01*
X125443Y296631D01*
X124486Y296925D01*
X123514Y297170D01*
X122532Y297364D01*
X121540Y297506D01*
X120543Y297597D01*
X119542Y297636D01*
X118540Y297623D01*
X117541Y297558D01*
X116546Y297441D01*
X115559Y297273D01*
X114581Y297054D01*
X113617Y296784D01*
X112667Y296465D01*
X111736Y296097D01*
X110825Y295680D01*
X109936Y295218D01*
X109073Y294709D01*
X108238Y294157D01*
X107432Y293562D01*
X106658Y292926D01*
X105919Y292250D01*
X105215Y291538D01*
X104549Y290789D01*
X103923Y290007D01*
X103339Y289194D01*
X102797Y288351D01*
X102300Y287482D01*
X101849Y286588D01*
X101445Y285671D01*
X101089Y284735D01*
X100781Y283782D01*
X100524Y282813D01*
X100318Y281833D01*
X100162Y280844D01*
X100058Y279848D01*
X100006Y278847D01*
Y277846D01*
X100058Y276845D01*
X100162Y275849D01*
X100318Y274860D01*
X100524Y273880D01*
X100781Y272912D01*
X101089Y271958D01*
X101445Y271022D01*
X101849Y270106D01*
X102300Y269211D01*
X102797Y268342D01*
X103339Y267499D01*
X103923Y266686D01*
X104549Y265904D01*
X105215Y265155D01*
X105919Y264442D01*
X106658Y263767D01*
X107432Y263131D01*
X108238Y262536D01*
X109073Y261984D01*
X109936Y261475D01*
X110825Y261012D01*
X111736Y260596D01*
X112667Y260228D01*
X113617Y259909D01*
X114581Y259639D01*
X115559Y259420D01*
X116546Y259251D01*
X117541Y259135D01*
X118540Y259070D01*
X119542Y259057D01*
X120543Y259096D01*
X121540Y259187D01*
X122532Y259329D01*
X123514Y259523D01*
X124486Y259768D01*
X125443Y260062D01*
X126384Y260406D01*
X127305Y260799D01*
X128205Y261238D01*
X129081Y261724D01*
X129931Y262254D01*
X130752Y262828D01*
X131542Y263444D01*
X132299Y264100D01*
X133021Y264794D01*
X133706Y265525D01*
X134352Y266291D01*
X134957Y267089D01*
X135520Y267917D01*
X136040Y268773D01*
X136514Y269655D01*
X136942Y270561D01*
X137322Y271488D01*
X137654Y272433D01*
X137936Y273394D01*
X138168Y274368D01*
X138349Y275354D01*
X138479Y276347D01*
X138557Y277345D01*
X138583Y278346D01*
Y198819D02*
X138557Y199820D01*
X138479Y200819D01*
X138349Y201812D01*
X138168Y202797D01*
X137936Y203771D01*
X137654Y204733D01*
X137322Y205678D01*
X136942Y206604D01*
X136514Y207510D01*
X136040Y208392D01*
X135520Y209249D01*
X134957Y210077D01*
X134352Y210875D01*
X133705Y211640D01*
X133021Y212371D01*
X132299Y213066D01*
X131542Y213721D01*
X130752Y214337D01*
X129931Y214911D01*
X129081Y215442D01*
X128205Y215927D01*
X127305Y216367D01*
X126384Y216759D01*
X125443Y217103D01*
X124486Y217398D01*
X123514Y217642D01*
X122532Y217836D01*
X121540Y217979D01*
X120543Y218070D01*
X119542Y218109D01*
X118540Y218096D01*
X117541Y218031D01*
X116546Y217914D01*
X115559Y217746D01*
X114581Y217526D01*
X113617Y217257D01*
X112667Y216937D01*
X111736Y216569D01*
X110825Y216153D01*
X109936Y215690D01*
X109073Y215182D01*
X108238Y214629D01*
X107432Y214034D01*
X106658Y213398D01*
X105919Y212723D01*
X105215Y212010D01*
X104549Y211262D01*
X103923Y210480D01*
X103339Y209666D01*
X102797Y208824D01*
X102300Y207954D01*
X101849Y207060D01*
X101445Y206143D01*
X101089Y205207D01*
X100781Y204254D01*
X100524Y203286D01*
X100318Y202306D01*
X100162Y201316D01*
X100058Y200320D01*
X100006Y199320D01*
Y198318D01*
X100058Y197318D01*
X100162Y196322D01*
X100318Y195332D01*
X100524Y194352D01*
X100781Y193384D01*
X101089Y192430D01*
X101445Y191494D01*
X101849Y190578D01*
X102300Y189684D01*
X102797Y188814D01*
X103339Y187971D01*
X103923Y187158D01*
X104549Y186376D01*
X105215Y185628D01*
X105919Y184915D01*
X106658Y184239D01*
X107432Y183603D01*
X108238Y183008D01*
X109073Y182456D01*
X109936Y181948D01*
X110825Y181485D01*
X111736Y181069D01*
X112667Y180701D01*
X113617Y180381D01*
X114581Y180111D01*
X115559Y179892D01*
X116546Y179724D01*
X117541Y179607D01*
X118540Y179542D01*
X119542Y179529D01*
X120543Y179568D01*
X121540Y179659D01*
X122532Y179802D01*
X123514Y179995D01*
X124486Y180240D01*
X125443Y180535D01*
X126384Y180879D01*
X127305Y181271D01*
X128205Y181711D01*
X129081Y182196D01*
X129931Y182727D01*
X130752Y183301D01*
X131542Y183916D01*
X132299Y184572D01*
X133021Y185267D01*
X133706Y185998D01*
X134352Y186763D01*
X134957Y187561D01*
X135520Y188389D01*
X136040Y189246D01*
X136514Y190128D01*
X136942Y191033D01*
X137322Y191960D01*
X137654Y192905D01*
X137936Y193866D01*
X138168Y194841D01*
X138349Y195826D01*
X138479Y196819D01*
X138557Y197818D01*
X138583Y198819D01*
Y119291D02*
X138557Y120293D01*
X138479Y121291D01*
X138349Y122284D01*
X138168Y123270D01*
X137936Y124244D01*
X137654Y125205D01*
X137322Y126150D01*
X136942Y127077D01*
X136514Y127982D01*
X136040Y128865D01*
X135520Y129721D01*
X134957Y130549D01*
X134352Y131347D01*
X133705Y132113D01*
X133021Y132844D01*
X132299Y133538D01*
X131542Y134194D01*
X130752Y134810D01*
X129931Y135383D01*
X129081Y135914D01*
X128205Y136400D01*
X127305Y136839D01*
X126384Y137232D01*
X125443Y137576D01*
X124486Y137870D01*
X123514Y138115D01*
X122532Y138309D01*
X121540Y138451D01*
X120543Y138542D01*
X119542Y138581D01*
X118540Y138568D01*
X117541Y138503D01*
X116546Y138386D01*
X115559Y138218D01*
X114581Y137999D01*
X113617Y137729D01*
X112667Y137410D01*
X111736Y137041D01*
X110825Y136625D01*
X109936Y136163D01*
X109073Y135654D01*
X108238Y135102D01*
X107432Y134507D01*
X106658Y133871D01*
X105919Y133195D01*
X105215Y132483D01*
X104549Y131734D01*
X103923Y130952D01*
X103339Y130139D01*
X102797Y129296D01*
X102300Y128427D01*
X101849Y127532D01*
X101445Y126616D01*
X101089Y125680D01*
X100781Y124726D01*
X100524Y123758D01*
X100318Y122778D01*
X100162Y121789D01*
X100058Y120792D01*
X100006Y119792D01*
Y118791D01*
X100058Y117790D01*
X100162Y116794D01*
X100318Y115805D01*
X100524Y114824D01*
X100781Y113856D01*
X101089Y112903D01*
X101445Y111967D01*
X101849Y111050D01*
X102300Y110156D01*
X102797Y109286D01*
X103339Y108444D01*
X103923Y107631D01*
X104549Y106849D01*
X105215Y106100D01*
X105919Y105387D01*
X106658Y104712D01*
X107432Y104076D01*
X108238Y103481D01*
X109073Y102928D01*
X109936Y102420D01*
X110825Y101957D01*
X111736Y101541D01*
X112667Y101173D01*
X113617Y100854D01*
X114581Y100584D01*
X115559Y100365D01*
X116546Y100196D01*
X117541Y100080D01*
X118540Y100015D01*
X119542Y100002D01*
X120543Y100041D01*
X121540Y100131D01*
X122532Y100274D01*
X123514Y100468D01*
X124486Y100712D01*
X125443Y101007D01*
X126384Y101351D01*
X127305Y101743D01*
X128205Y102183D01*
X129081Y102669D01*
X129931Y103199D01*
X130752Y103773D01*
X131542Y104389D01*
X132299Y105045D01*
X133021Y105739D01*
X133706Y106470D01*
X134352Y107236D01*
X134957Y108033D01*
X135520Y108862D01*
X136040Y109718D01*
X136514Y110600D01*
X136942Y111506D01*
X137322Y112433D01*
X137654Y113378D01*
X137936Y114339D01*
X138168Y115313D01*
X138349Y116298D01*
X138479Y117292D01*
X138557Y118290D01*
X138583Y119291D01*
Y39764D02*
X138557Y40765D01*
X138479Y41764D01*
X138349Y42757D01*
X138168Y43742D01*
X137936Y44716D01*
X137654Y45678D01*
X137322Y46623D01*
X136942Y47549D01*
X136514Y48455D01*
X136040Y49337D01*
X135520Y50194D01*
X134957Y51022D01*
X134352Y51820D01*
X133705Y52585D01*
X133021Y53316D01*
X132299Y54010D01*
X131542Y54666D01*
X130752Y55282D01*
X129931Y55856D01*
X129081Y56387D01*
X128205Y56872D01*
X127305Y57312D01*
X126384Y57704D01*
X125443Y58048D01*
X124486Y58343D01*
X123514Y58587D01*
X122532Y58781D01*
X121540Y58924D01*
X120543Y59014D01*
X119542Y59053D01*
X118540Y59040D01*
X117541Y58975D01*
X116546Y58859D01*
X115559Y58691D01*
X114581Y58471D01*
X113617Y58202D01*
X112667Y57882D01*
X111736Y57514D01*
X110825Y57098D01*
X109936Y56635D01*
X109073Y56127D01*
X108238Y55574D01*
X107432Y54979D01*
X106658Y54343D01*
X105919Y53668D01*
X105215Y52955D01*
X104549Y52207D01*
X103923Y51425D01*
X103339Y50611D01*
X102797Y49769D01*
X102300Y48899D01*
X101849Y48005D01*
X101445Y47088D01*
X101089Y46152D01*
X100781Y45199D01*
X100524Y44231D01*
X100318Y43251D01*
X100162Y42261D01*
X100058Y41265D01*
X100006Y40265D01*
Y39263D01*
X100058Y38263D01*
X100162Y37266D01*
X100318Y36277D01*
X100524Y35297D01*
X100781Y34329D01*
X101089Y33375D01*
X101445Y32439D01*
X101849Y31523D01*
X102300Y30629D01*
X102797Y29759D01*
X103339Y28916D01*
X103923Y28103D01*
X104549Y27321D01*
X105215Y26573D01*
X105919Y25860D01*
X106658Y25184D01*
X107432Y24548D01*
X108238Y23953D01*
X109073Y23401D01*
X109936Y22893D01*
X110825Y22430D01*
X111736Y22014D01*
X112667Y21645D01*
X113617Y21326D01*
X114581Y21056D01*
X115559Y20837D01*
X116546Y20669D01*
X117541Y20552D01*
X118540Y20487D01*
X119542Y20474D01*
X120543Y20513D01*
X121540Y20604D01*
X122532Y20746D01*
X123514Y20940D01*
X124486Y21185D01*
X125443Y21479D01*
X126384Y21824D01*
X127305Y22216D01*
X128205Y22655D01*
X129081Y23141D01*
X129931Y23672D01*
X130752Y24246D01*
X131542Y24861D01*
X132299Y25517D01*
X133021Y26212D01*
X133706Y26943D01*
X134352Y27708D01*
X134957Y28506D01*
X135520Y29334D01*
X136040Y30191D01*
X136514Y31073D01*
X136942Y31978D01*
X137322Y32905D01*
X137654Y33850D01*
X137936Y34811D01*
X138168Y35786D01*
X138349Y36771D01*
X138479Y37764D01*
X138557Y38763D01*
X138583Y39764D01*
Y357874D02*
X138557Y358875D01*
X138479Y359874D01*
X138349Y360867D01*
X138168Y361852D01*
X137936Y362827D01*
X137654Y363788D01*
X137322Y364733D01*
X136942Y365659D01*
X136514Y366565D01*
X136040Y367447D01*
X135520Y368304D01*
X134957Y369132D01*
X134352Y369930D01*
X133705Y370695D01*
X133021Y371426D01*
X132299Y372121D01*
X131542Y372777D01*
X130752Y373392D01*
X129931Y373966D01*
X129081Y374497D01*
X128205Y374982D01*
X127305Y375422D01*
X126384Y375814D01*
X125443Y376158D01*
X124486Y376453D01*
X123514Y376697D01*
X122532Y376891D01*
X121540Y377034D01*
X120543Y377125D01*
X119542Y377164D01*
X118540Y377151D01*
X117541Y377086D01*
X116546Y376969D01*
X115559Y376801D01*
X114581Y376582D01*
X113617Y376312D01*
X112667Y375992D01*
X111736Y375624D01*
X110825Y375208D01*
X109936Y374745D01*
X109073Y374237D01*
X108238Y373685D01*
X107432Y373090D01*
X106658Y372453D01*
X105919Y371778D01*
X105215Y371065D01*
X104549Y370317D01*
X103923Y369535D01*
X103339Y368722D01*
X102797Y367879D01*
X102300Y367009D01*
X101849Y366115D01*
X101445Y365199D01*
X101089Y364262D01*
X100781Y363309D01*
X100524Y362341D01*
X100318Y361361D01*
X100162Y360371D01*
X100058Y359375D01*
X100006Y358375D01*
Y357373D01*
X100058Y356373D01*
X100162Y355377D01*
X100318Y354387D01*
X100524Y353407D01*
X100781Y352439D01*
X101089Y351486D01*
X101445Y350549D01*
X101849Y349633D01*
X102300Y348739D01*
X102797Y347869D01*
X103339Y347026D01*
X103923Y346213D01*
X104549Y345431D01*
X105215Y344683D01*
X105919Y343970D01*
X106658Y343295D01*
X107432Y342659D01*
X108238Y342063D01*
X109073Y341511D01*
X109936Y341003D01*
X110825Y340540D01*
X111736Y340124D01*
X112667Y339756D01*
X113617Y339436D01*
X114581Y339166D01*
X115559Y338947D01*
X116546Y338779D01*
X117541Y338662D01*
X118540Y338597D01*
X119542Y338584D01*
X120543Y338623D01*
X121540Y338714D01*
X122532Y338857D01*
X123514Y339051D01*
X124486Y339295D01*
X125443Y339590D01*
X126384Y339934D01*
X127305Y340326D01*
X128205Y340766D01*
X129081Y341251D01*
X129931Y341782D01*
X130752Y342356D01*
X131542Y342972D01*
X132299Y343628D01*
X133021Y344322D01*
X133706Y345053D01*
X134352Y345818D01*
X134957Y346616D01*
X135520Y347444D01*
X136040Y348301D01*
X136514Y349183D01*
X136942Y350089D01*
X137322Y351015D01*
X137654Y351960D01*
X137936Y352922D01*
X138168Y353896D01*
X138349Y354881D01*
X138479Y355874D01*
X138557Y356873D01*
X138583Y357874D01*
Y437402D02*
X138557Y438403D01*
X138479Y439401D01*
X138349Y440395D01*
X138168Y441380D01*
X137936Y442354D01*
X137654Y443315D01*
X137322Y444260D01*
X136942Y445187D01*
X136514Y446093D01*
X136040Y446975D01*
X135520Y447831D01*
X134957Y448660D01*
X134352Y449458D01*
X133705Y450223D01*
X133021Y450954D01*
X132299Y451648D01*
X131542Y452304D01*
X130752Y452920D01*
X129931Y453494D01*
X129081Y454024D01*
X128205Y454510D01*
X127305Y454950D01*
X126384Y455342D01*
X125443Y455686D01*
X124486Y455980D01*
X123514Y456225D01*
X122532Y456419D01*
X121540Y456561D01*
X120543Y456652D01*
X119542Y456691D01*
X118540Y456678D01*
X117541Y456613D01*
X116546Y456497D01*
X115559Y456328D01*
X114581Y456109D01*
X113617Y455839D01*
X112667Y455520D01*
X111736Y455152D01*
X110825Y454736D01*
X109936Y454273D01*
X109073Y453764D01*
X108238Y453212D01*
X107432Y452617D01*
X106658Y451981D01*
X105919Y451306D01*
X105215Y450593D01*
X104549Y449844D01*
X103923Y449062D01*
X103339Y448249D01*
X102797Y447406D01*
X102300Y446537D01*
X101849Y445643D01*
X101445Y444726D01*
X101089Y443790D01*
X100781Y442837D01*
X100524Y441868D01*
X100318Y440888D01*
X100162Y439899D01*
X100058Y438903D01*
X100006Y437902D01*
Y436901D01*
X100058Y435900D01*
X100162Y434904D01*
X100318Y433915D01*
X100524Y432935D01*
X100781Y431967D01*
X101089Y431013D01*
X101445Y430077D01*
X101849Y429161D01*
X102300Y428266D01*
X102797Y427397D01*
X103339Y426554D01*
X103923Y425741D01*
X104549Y424959D01*
X105215Y424210D01*
X105919Y423497D01*
X106658Y422822D01*
X107432Y422186D01*
X108238Y421591D01*
X109073Y421039D01*
X109936Y420530D01*
X110825Y420068D01*
X111736Y419651D01*
X112667Y419283D01*
X113617Y418964D01*
X114581Y418694D01*
X115559Y418475D01*
X116546Y418307D01*
X117541Y418190D01*
X118540Y418125D01*
X119542Y418112D01*
X120543Y418151D01*
X121540Y418242D01*
X122532Y418384D01*
X123514Y418578D01*
X124486Y418823D01*
X125443Y419117D01*
X126384Y419461D01*
X127305Y419854D01*
X128205Y420293D01*
X129081Y420779D01*
X129931Y421309D01*
X130752Y421883D01*
X131542Y422499D01*
X132299Y423155D01*
X133021Y423849D01*
X133706Y424580D01*
X134352Y425346D01*
X134957Y426144D01*
X135520Y426972D01*
X136040Y427828D01*
X136514Y428711D01*
X136942Y429616D01*
X137322Y430543D01*
X137654Y431488D01*
X137936Y432449D01*
X138168Y433423D01*
X138349Y434409D01*
X138479Y435402D01*
X138557Y436400D01*
X138583Y437402D01*
X59055D02*
X59029Y438403D01*
X58951Y439401D01*
X58821Y440395D01*
X58640Y441380D01*
X58408Y442354D01*
X58126Y443315D01*
X57795Y444260D01*
X57414Y445187D01*
X56986Y446093D01*
X56512Y446975D01*
X55993Y447831D01*
X55430Y448660D01*
X54824Y449458D01*
X54178Y450223D01*
X53493Y450954D01*
X52771Y451648D01*
X52014Y452304D01*
X51224Y452920D01*
X50403Y453494D01*
X49554Y454024D01*
X48678Y454510D01*
X47778Y454950D01*
X46856Y455342D01*
X45915Y455686D01*
X44958Y455980D01*
X43987Y456225D01*
X43004Y456419D01*
X42013Y456561D01*
X41015Y456652D01*
X40014Y456691D01*
X39013Y456678D01*
X38013Y456613D01*
X37018Y456497D01*
X36031Y456328D01*
X35054Y456109D01*
X34089Y455839D01*
X33140Y455520D01*
X32208Y455152D01*
X31297Y454736D01*
X30409Y454273D01*
X29546Y453764D01*
X28710Y453212D01*
X27904Y452617D01*
X27131Y451981D01*
X26391Y451306D01*
X25687Y450593D01*
X25022Y449844D01*
X24396Y449062D01*
X23811Y448249D01*
X23270Y447406D01*
X22772Y446537D01*
X22321Y445643D01*
X21917Y444726D01*
X21561Y443790D01*
X21254Y442837D01*
X20997Y441868D01*
X20790Y440888D01*
X20635Y439899D01*
X20531Y438903D01*
X20479Y437902D01*
Y436901D01*
X20531Y435900D01*
X20635Y434904D01*
X20790Y433915D01*
X20997Y432935D01*
X21254Y431967D01*
X21561Y431013D01*
X21917Y430077D01*
X22321Y429161D01*
X22772Y428266D01*
X23270Y427397D01*
X23811Y426554D01*
X24396Y425741D01*
X25022Y424959D01*
X25687Y424210D01*
X26391Y423497D01*
X27131Y422822D01*
X27904Y422186D01*
X28710Y421591D01*
X29546Y421039D01*
X30409Y420530D01*
X31297Y420068D01*
X32208Y419651D01*
X33140Y419283D01*
X34089Y418964D01*
X35054Y418694D01*
X36031Y418475D01*
X37018Y418307D01*
X38013Y418190D01*
X39013Y418125D01*
X40014Y418112D01*
X41015Y418151D01*
X42013Y418242D01*
X43004Y418384D01*
X43987Y418578D01*
X44958Y418823D01*
X45915Y419117D01*
X46856Y419461D01*
X47778Y419854D01*
X48678Y420293D01*
X49554Y420779D01*
X50403Y421309D01*
X51224Y421883D01*
X52014Y422499D01*
X52771Y423155D01*
X53493Y423849D01*
X54178Y424580D01*
X54824Y425346D01*
X55430Y426144D01*
X55993Y426972D01*
X56512Y427828D01*
X56986Y428711D01*
X57414Y429616D01*
X57795Y430543D01*
X58126Y431488D01*
X58409Y432449D01*
X58640Y433423D01*
X58821Y434409D01*
X58951Y435402D01*
X59029Y436400D01*
X59055Y437402D01*
Y357874D02*
X59029Y358875D01*
X58951Y359874D01*
X58821Y360867D01*
X58640Y361852D01*
X58408Y362827D01*
X58126Y363788D01*
X57795Y364733D01*
X57414Y365659D01*
X56986Y366565D01*
X56512Y367447D01*
X55993Y368304D01*
X55430Y369132D01*
X54824Y369930D01*
X54178Y370695D01*
X53493Y371426D01*
X52771Y372121D01*
X52014Y372777D01*
X51224Y373392D01*
X50403Y373966D01*
X49554Y374497D01*
X48678Y374982D01*
X47778Y375422D01*
X46856Y375814D01*
X45915Y376158D01*
X44958Y376453D01*
X43987Y376697D01*
X43004Y376891D01*
X42013Y377034D01*
X41015Y377125D01*
X40014Y377164D01*
X39013Y377151D01*
X38013Y377086D01*
X37018Y376969D01*
X36031Y376801D01*
X35054Y376582D01*
X34089Y376312D01*
X33140Y375992D01*
X32208Y375624D01*
X31297Y375208D01*
X30409Y374745D01*
X29546Y374237D01*
X28710Y373685D01*
X27904Y373090D01*
X27131Y372453D01*
X26391Y371778D01*
X25687Y371065D01*
X25022Y370317D01*
X24396Y369535D01*
X23811Y368722D01*
X23270Y367879D01*
X22772Y367009D01*
X22321Y366115D01*
X21917Y365199D01*
X21561Y364262D01*
X21254Y363309D01*
X20997Y362341D01*
X20790Y361361D01*
X20635Y360371D01*
X20531Y359375D01*
X20479Y358375D01*
Y357373D01*
X20531Y356373D01*
X20635Y355377D01*
X20790Y354387D01*
X20997Y353407D01*
X21254Y352439D01*
X21561Y351486D01*
X21917Y350549D01*
X22321Y349633D01*
X22772Y348739D01*
X23270Y347869D01*
X23811Y347026D01*
X24396Y346213D01*
X25022Y345431D01*
X25687Y344683D01*
X26391Y343970D01*
X27131Y343295D01*
X27904Y342659D01*
X28710Y342063D01*
X29546Y341511D01*
X30409Y341003D01*
X31297Y340540D01*
X32208Y340124D01*
X33140Y339756D01*
X34089Y339436D01*
X35054Y339166D01*
X36031Y338947D01*
X37018Y338779D01*
X38013Y338662D01*
X39013Y338597D01*
X40014Y338584D01*
X41015Y338623D01*
X42013Y338714D01*
X43004Y338857D01*
X43987Y339051D01*
X44958Y339295D01*
X45915Y339590D01*
X46856Y339934D01*
X47778Y340326D01*
X48678Y340766D01*
X49554Y341251D01*
X50403Y341782D01*
X51224Y342356D01*
X52014Y342972D01*
X52771Y343628D01*
X53493Y344322D01*
X54178Y345053D01*
X54824Y345818D01*
X55430Y346616D01*
X55993Y347444D01*
X56512Y348301D01*
X56986Y349183D01*
X57414Y350089D01*
X57795Y351015D01*
X58126Y351960D01*
X58409Y352922D01*
X58640Y353896D01*
X58821Y354881D01*
X58951Y355874D01*
X59029Y356873D01*
X59055Y357874D01*
Y278346D02*
X59029Y279348D01*
X58951Y280346D01*
X58821Y281340D01*
X58640Y282325D01*
X58408Y283299D01*
X58126Y284260D01*
X57795Y285205D01*
X57414Y286132D01*
X56986Y287037D01*
X56512Y287920D01*
X55993Y288776D01*
X55430Y289604D01*
X54824Y290402D01*
X54178Y291168D01*
X53493Y291899D01*
X52771Y292593D01*
X52014Y293249D01*
X51224Y293865D01*
X50403Y294439D01*
X49554Y294969D01*
X48678Y295455D01*
X47778Y295895D01*
X46856Y296287D01*
X45915Y296631D01*
X44958Y296925D01*
X43987Y297170D01*
X43004Y297364D01*
X42013Y297506D01*
X41015Y297597D01*
X40014Y297636D01*
X39013Y297623D01*
X38013Y297558D01*
X37018Y297441D01*
X36031Y297273D01*
X35054Y297054D01*
X34089Y296784D01*
X33140Y296465D01*
X32208Y296097D01*
X31297Y295680D01*
X30409Y295218D01*
X29546Y294709D01*
X28710Y294157D01*
X27904Y293562D01*
X27131Y292926D01*
X26391Y292250D01*
X25687Y291538D01*
X25022Y290789D01*
X24396Y290007D01*
X23811Y289194D01*
X23270Y288351D01*
X22772Y287482D01*
X22321Y286588D01*
X21917Y285671D01*
X21561Y284735D01*
X21254Y283782D01*
X20997Y282813D01*
X20790Y281833D01*
X20635Y280844D01*
X20531Y279848D01*
X20479Y278847D01*
Y277846D01*
X20531Y276845D01*
X20635Y275849D01*
X20790Y274860D01*
X20997Y273880D01*
X21254Y272912D01*
X21561Y271958D01*
X21917Y271022D01*
X22321Y270106D01*
X22772Y269211D01*
X23270Y268342D01*
X23811Y267499D01*
X24396Y266686D01*
X25022Y265904D01*
X25687Y265155D01*
X26391Y264442D01*
X27131Y263767D01*
X27904Y263131D01*
X28710Y262536D01*
X29546Y261984D01*
X30409Y261475D01*
X31297Y261012D01*
X32208Y260596D01*
X33140Y260228D01*
X34089Y259909D01*
X35054Y259639D01*
X36031Y259420D01*
X37018Y259251D01*
X38013Y259135D01*
X39013Y259070D01*
X40014Y259057D01*
X41015Y259096D01*
X42013Y259187D01*
X43004Y259329D01*
X43987Y259523D01*
X44958Y259768D01*
X45915Y260062D01*
X46856Y260406D01*
X47778Y260799D01*
X48678Y261238D01*
X49554Y261724D01*
X50403Y262254D01*
X51224Y262828D01*
X52014Y263444D01*
X52771Y264100D01*
X53493Y264794D01*
X54178Y265525D01*
X54824Y266291D01*
X55430Y267089D01*
X55993Y267917D01*
X56512Y268773D01*
X56986Y269655D01*
X57414Y270561D01*
X57795Y271488D01*
X58126Y272433D01*
X58409Y273394D01*
X58640Y274368D01*
X58821Y275354D01*
X58951Y276347D01*
X59029Y277345D01*
X59055Y278346D01*
Y198819D02*
X59029Y199820D01*
X58951Y200819D01*
X58821Y201812D01*
X58640Y202797D01*
X58408Y203771D01*
X58126Y204733D01*
X57795Y205678D01*
X57414Y206604D01*
X56986Y207510D01*
X56512Y208392D01*
X55993Y209249D01*
X55430Y210077D01*
X54824Y210875D01*
X54178Y211640D01*
X53493Y212371D01*
X52771Y213066D01*
X52014Y213721D01*
X51224Y214337D01*
X50403Y214911D01*
X49554Y215442D01*
X48678Y215927D01*
X47778Y216367D01*
X46856Y216759D01*
X45915Y217103D01*
X44958Y217398D01*
X43987Y217642D01*
X43004Y217836D01*
X42013Y217979D01*
X41015Y218070D01*
X40014Y218109D01*
X39013Y218096D01*
X38013Y218031D01*
X37018Y217914D01*
X36031Y217746D01*
X35054Y217526D01*
X34089Y217257D01*
X33140Y216937D01*
X32208Y216569D01*
X31297Y216153D01*
X30409Y215690D01*
X29546Y215182D01*
X28710Y214629D01*
X27904Y214034D01*
X27131Y213398D01*
X26391Y212723D01*
X25687Y212010D01*
X25022Y211262D01*
X24396Y210480D01*
X23811Y209666D01*
X23270Y208824D01*
X22772Y207954D01*
X22321Y207060D01*
X21917Y206143D01*
X21561Y205207D01*
X21254Y204254D01*
X20997Y203286D01*
X20790Y202306D01*
X20635Y201316D01*
X20531Y200320D01*
X20479Y199320D01*
Y198318D01*
X20531Y197318D01*
X20635Y196322D01*
X20790Y195332D01*
X20997Y194352D01*
X21254Y193384D01*
X21561Y192430D01*
X21917Y191494D01*
X22321Y190578D01*
X22772Y189684D01*
X23270Y188814D01*
X23811Y187971D01*
X24396Y187158D01*
X25022Y186376D01*
X25687Y185628D01*
X26391Y184915D01*
X27131Y184239D01*
X27904Y183603D01*
X28710Y183008D01*
X29546Y182456D01*
X30409Y181948D01*
X31297Y181485D01*
X32208Y181069D01*
X33140Y180701D01*
X34089Y180381D01*
X35054Y180111D01*
X36031Y179892D01*
X37018Y179724D01*
X38013Y179607D01*
X39013Y179542D01*
X40014Y179529D01*
X41015Y179568D01*
X42013Y179659D01*
X43004Y179802D01*
X43987Y179995D01*
X44958Y180240D01*
X45915Y180535D01*
X46856Y180879D01*
X47778Y181271D01*
X48678Y181711D01*
X49554Y182196D01*
X50403Y182727D01*
X51224Y183301D01*
X52014Y183916D01*
X52771Y184572D01*
X53493Y185267D01*
X54178Y185998D01*
X54824Y186763D01*
X55430Y187561D01*
X55993Y188389D01*
X56512Y189246D01*
X56986Y190128D01*
X57414Y191033D01*
X57795Y191960D01*
X58126Y192905D01*
X58409Y193866D01*
X58640Y194841D01*
X58821Y195826D01*
X58951Y196819D01*
X59029Y197818D01*
X59055Y198819D01*
Y119291D02*
X59029Y120293D01*
X58951Y121291D01*
X58821Y122284D01*
X58640Y123270D01*
X58408Y124244D01*
X58126Y125205D01*
X57795Y126150D01*
X57414Y127077D01*
X56986Y127982D01*
X56512Y128865D01*
X55993Y129721D01*
X55430Y130549D01*
X54824Y131347D01*
X54178Y132113D01*
X53493Y132844D01*
X52771Y133538D01*
X52014Y134194D01*
X51224Y134810D01*
X50403Y135383D01*
X49554Y135914D01*
X48678Y136400D01*
X47778Y136839D01*
X46856Y137232D01*
X45915Y137576D01*
X44958Y137870D01*
X43987Y138115D01*
X43004Y138309D01*
X42013Y138451D01*
X41015Y138542D01*
X40014Y138581D01*
X39013Y138568D01*
X38013Y138503D01*
X37018Y138386D01*
X36031Y138218D01*
X35054Y137999D01*
X34089Y137729D01*
X33140Y137410D01*
X32208Y137041D01*
X31297Y136625D01*
X30409Y136163D01*
X29546Y135654D01*
X28710Y135102D01*
X27904Y134507D01*
X27131Y133871D01*
X26391Y133195D01*
X25687Y132483D01*
X25022Y131734D01*
X24396Y130952D01*
X23811Y130139D01*
X23270Y129296D01*
X22772Y128427D01*
X22321Y127532D01*
X21917Y126616D01*
X21561Y125680D01*
X21254Y124726D01*
X20997Y123758D01*
X20790Y122778D01*
X20635Y121789D01*
X20531Y120792D01*
X20479Y119792D01*
Y118791D01*
X20531Y117790D01*
X20635Y116794D01*
X20790Y115805D01*
X20997Y114824D01*
X21254Y113856D01*
X21561Y112903D01*
X21917Y111967D01*
X22321Y111050D01*
X22772Y110156D01*
X23270Y109286D01*
X23811Y108444D01*
X24396Y107631D01*
X25022Y106849D01*
X25687Y106100D01*
X26391Y105387D01*
X27131Y104712D01*
X27904Y104076D01*
X28710Y103481D01*
X29546Y102928D01*
X30409Y102420D01*
X31297Y101957D01*
X32208Y101541D01*
X33140Y101173D01*
X34089Y100854D01*
X35054Y100584D01*
X36031Y100365D01*
X37018Y100196D01*
X38013Y100080D01*
X39013Y100015D01*
X40014Y100002D01*
X41015Y100041D01*
X42013Y100131D01*
X43004Y100274D01*
X43987Y100468D01*
X44958Y100712D01*
X45915Y101007D01*
X46856Y101351D01*
X47778Y101743D01*
X48678Y102183D01*
X49554Y102669D01*
X50403Y103199D01*
X51224Y103773D01*
X52014Y104389D01*
X52771Y105045D01*
X53493Y105739D01*
X54178Y106470D01*
X54824Y107236D01*
X55430Y108033D01*
X55993Y108862D01*
X56512Y109718D01*
X56986Y110600D01*
X57414Y111506D01*
X57795Y112433D01*
X58126Y113378D01*
X58409Y114339D01*
X58640Y115313D01*
X58821Y116298D01*
X58951Y117292D01*
X59029Y118290D01*
X59055Y119291D01*
Y39764D02*
X59029Y40765D01*
X58951Y41764D01*
X58821Y42757D01*
X58640Y43742D01*
X58408Y44716D01*
X58126Y45678D01*
X57795Y46623D01*
X57414Y47549D01*
X56986Y48455D01*
X56512Y49337D01*
X55993Y50194D01*
X55430Y51022D01*
X54824Y51820D01*
X54178Y52585D01*
X53493Y53316D01*
X52771Y54010D01*
X52014Y54666D01*
X51224Y55282D01*
X50403Y55856D01*
X49554Y56387D01*
X48678Y56872D01*
X47778Y57312D01*
X46856Y57704D01*
X45915Y58048D01*
X44958Y58343D01*
X43987Y58587D01*
X43004Y58781D01*
X42013Y58924D01*
X41015Y59014D01*
X40014Y59053D01*
X39013Y59040D01*
X38013Y58975D01*
X37018Y58859D01*
X36031Y58691D01*
X35054Y58471D01*
X34089Y58202D01*
X33140Y57882D01*
X32208Y57514D01*
X31297Y57098D01*
X30409Y56635D01*
X29546Y56127D01*
X28710Y55574D01*
X27904Y54979D01*
X27131Y54343D01*
X26391Y53668D01*
X25687Y52955D01*
X25022Y52207D01*
X24396Y51425D01*
X23811Y50611D01*
X23270Y49769D01*
X22772Y48899D01*
X22321Y48005D01*
X21917Y47088D01*
X21561Y46152D01*
X21254Y45199D01*
X20997Y44231D01*
X20790Y43251D01*
X20635Y42261D01*
X20531Y41265D01*
X20479Y40265D01*
Y39263D01*
X20531Y38263D01*
X20635Y37266D01*
X20790Y36277D01*
X20997Y35297D01*
X21254Y34329D01*
X21561Y33375D01*
X21917Y32439D01*
X22321Y31523D01*
X22772Y30629D01*
X23270Y29759D01*
X23811Y28916D01*
X24396Y28103D01*
X25022Y27321D01*
X25687Y26573D01*
X26391Y25860D01*
X27131Y25184D01*
X27904Y24548D01*
X28710Y23953D01*
X29546Y23401D01*
X30409Y22893D01*
X31297Y22430D01*
X32208Y22014D01*
X33140Y21645D01*
X34089Y21326D01*
X35054Y21056D01*
X36031Y20837D01*
X37018Y20669D01*
X38013Y20552D01*
X39013Y20487D01*
X40014Y20474D01*
X41015Y20513D01*
X42013Y20604D01*
X43004Y20746D01*
X43987Y20940D01*
X44958Y21185D01*
X45915Y21479D01*
X46856Y21824D01*
X47778Y22216D01*
X48678Y22655D01*
X49554Y23141D01*
X50403Y23672D01*
X51224Y24246D01*
X52014Y24861D01*
X52771Y25517D01*
X53493Y26212D01*
X54178Y26943D01*
X54824Y27708D01*
X55430Y28506D01*
X55993Y29334D01*
X56512Y30191D01*
X56986Y31073D01*
X57414Y31978D01*
X57795Y32905D01*
X58126Y33850D01*
X58409Y34811D01*
X58640Y35786D01*
X58821Y36771D01*
X58951Y37764D01*
X59029Y38763D01*
X59055Y39764D01*
X0Y0D02*
X318110D01*
X0D02*
Y477559D01*
X318110D02*
X318110Y0D01*
X0Y477559D02*
X318110D01*
M02*
